<svg xmlns="http://www.w3.org/2000/svg" width="1200" height="330" viewBox="0 0 1200 330"><rect width="1200" height="330" rx="24" fill="#07110e"/><defs><marker id="a" markerWidth="10" markerHeight="10" refX="9" refY="3" orient="auto"><path d="M0 0L10 3 0 6z" fill="#59e391"/></marker></defs><g font-family="Arial" fill="#f2f7f4" text-anchor="middle"><text x="600" y="42" font-size="25" font-weight="700">Public CI/CD and Release Pipeline</text><g stroke="#59e391" stroke-width="3" fill="#10201a"><rect x="30" y="100" width="190" height="130" rx="16"/><rect x="270" y="100" width="190" height="130" rx="16"/><rect x="510" y="100" width="190" height="130" rx="16"/><rect x="750" y="100" width="190" height="130" rx="16"/><rect x="990" y="100" width="180" height="130" rx="16"/></g><g><image href="../../icons/github.svg" x="95" y="116" width="60" height="60"/><image href="../../icons/test.svg" x="335" y="116" width="60" height="60"/><image href="../../icons/browser.svg" x="575" y="116" width="60" height="60"/><image href="../../icons/docker.svg" x="815" y="116" width="60" height="60"/><image href="../../icons/github.svg" x="1050" y="116" width="60" height="60"/></g><g font-size="17"><text x="125" y="207">Git Push</text><text x="365" y="200">Pytest + Docs</text><text x="605" y="200">Playwright + Screens</text><text x="845" y="200">Docker Build</text><text x="1080" y="200">GHCR Tags</text></g><g stroke="#59e391" stroke-width="3" marker-end="url(#a)"><path d="M220 165h45"/><path d="M460 165h45"/><path d="M700 165h45"/><path d="M940 165h45"/></g><text x="1080" y="270" fill="#f4c95d" font-size="16">latest · v0.6.0 · SHA</text></g></svg>
